<svg width="40" height="40" viewBox="0 0 40 40" fill="none" xmlns="http://www.w3.org/2000/svg">
<circle cx="20" cy="20" r="20" fill="#FF6971"/>
<path d="M11.874 30.5873C11.5407 30.5873 11.2368 30.4844 10.9622 30.2785C10.6877 30.0726 10.5015 29.803 10.4034 29.4697L7.1093 17.5873C7.01126 17.3128 7.05538 17.0579 7.24166 16.8226C7.42793 16.5873 7.67793 16.4697 7.99166 16.4697H13.9328L19.1093 8.76379C19.2073 8.60692 19.3446 8.47947 19.5211 8.38143C19.6975 8.28339 19.8838 8.23438 20.0799 8.23438C20.276 8.23438 20.4622 8.28339 20.6387 8.38143C20.8152 8.47947 20.9524 8.60692 21.0505 8.76379L26.2269 16.4697H32.2269C32.5407 16.4697 32.7907 16.5873 32.9769 16.8226C33.1632 17.0579 33.2073 17.3128 33.1093 17.5873L29.8152 29.4697C29.7171 29.803 29.5309 30.0726 29.2564 30.2785C28.9819 30.4844 28.6779 30.5873 28.3446 30.5873H11.874ZM12.4622 28.2344H27.7564L30.3446 18.8226H9.87401L12.4622 28.2344ZM20.1093 25.8814C20.7564 25.8814 21.3103 25.651 21.7711 25.1903C22.2319 24.7295 22.4622 24.1756 22.4622 23.5285C22.4622 22.8814 22.2319 22.3275 21.7711 21.8667C21.3103 21.4059 20.7564 21.1756 20.1093 21.1756C19.4622 21.1756 18.9083 21.4059 18.4475 21.8667C17.9868 22.3275 17.7564 22.8814 17.7564 23.5285C17.7564 24.1756 17.9868 24.7295 18.4475 25.1903C18.9083 25.651 19.4622 25.8814 20.1093 25.8814ZM16.7858 16.4697H23.4034L20.0799 11.5285L16.7858 16.4697Z" fill="white"/>
</svg>
