<svg width="100" height="48" viewBox="0 0 100 48" fill="none" xmlns="http://www.w3.org/2000/svg">
<mask id="mask0_963_186" style="mask-type:alpha" maskUnits="userSpaceOnUse" x="0" y="18" width="12" height="12">
<rect y="18" width="12" height="12" fill="#D9D9D9"/>
</mask>
<g mask="url(#mask0_963_186)">
<path d="M4.0125 29L3.125 28.1125L7.2375 24L3.125 19.8875L4.0125 19L9.0125 24L4.0125 29Z" fill="#1C1B1F"/>
</g>
<mask id="mask1_963_186" style="mask-type:alpha" maskUnits="userSpaceOnUse" x="20" y="12" width="24" height="24">
<rect x="20" y="12" width="24" height="24" fill="#D9D9D9"/>
</mask>
<g mask="url(#mask1_963_186)">
<path d="M28.025 34L26.25 32.225L34.475 24L26.25 15.775L28.025 14L38.025 24L28.025 34Z" fill="#1C1B1F"/>
</g>
<mask id="mask2_963_186" style="mask-type:alpha" maskUnits="userSpaceOnUse" x="52" y="0" width="48" height="48">
<rect x="52" width="48" height="48" fill="#D9D9D9"/>
</mask>
<g mask="url(#mask2_963_186)">
<path d="M68.05 44L64.5 40.45L80.95 24L64.5 7.55L68.05 4L88.05 24L68.05 44Z" fill="#1C1B1F"/>
</g>
</svg>
